<svg xmlns="http://www.w3.org/2000/svg" data-name="Layer 1" viewBox="0 0 64 80" x="0px" y="0px"><title>file document format</title><path d="M25.16,56.627a3.474,3.474,0,0,1-1.7-.384,3.082,3.082,0,0,1-1.111-1.026,4.452,4.452,0,0,1-.6-1.464,7.968,7.968,0,0,1,0-3.414,4.375,4.375,0,0,1,.608-1.47,3.125,3.125,0,0,1,1.117-1.026,3.474,3.474,0,0,1,1.7-.384,3.661,3.661,0,0,1,1.92.5,2.195,2.195,0,0,1,.726.728,4.918,4.918,0,0,1,.534,1.259l-1.752.42a2.537,2.537,0,0,0-.528-.912,1.249,1.249,0,0,0-.96-.36,1.277,1.277,0,0,0-.63.151,1.383,1.383,0,0,0-.45.4,2.268,2.268,0,0,0-.294.562,3.942,3.942,0,0,0-.174.648,5.352,5.352,0,0,0-.078.659c-.012.218-.018.415-.018.593a4.5,4.5,0,0,0,.42,2.177A1.332,1.332,0,0,0,25.16,55a1.636,1.636,0,0,0,.594-.1,1.269,1.269,0,0,0,.426-.27,2.009,2.009,0,0,0,.324-.414,5.4,5.4,0,0,0,.276-.528l1.8.468A5.27,5.27,0,0,1,28,55.29a3.061,3.061,0,0,1-.738.746A3.527,3.527,0,0,1,25.16,56.627Z"/><path d="M32.312,56.627a3.844,3.844,0,0,1-1.9-.516,3,3,0,0,1-.852-.678,3.993,3.993,0,0,1-.636-1.062l1.6-.7a4.5,4.5,0,0,0,.312.57,1.948,1.948,0,0,0,.384.438,1.643,1.643,0,0,0,.5.282,1.88,1.88,0,0,0,.642.1,2.5,2.5,0,0,0,.492-.048,1.293,1.293,0,0,0,.426-.162.818.818,0,0,0,.294-.312,1.031,1.031,0,0,0,.108-.5.875.875,0,0,0-.456-.744,5.9,5.9,0,0,0-1.212-.6,7.529,7.529,0,0,1-2.076-1.092,2.1,2.1,0,0,1-.72-1.692,2.193,2.193,0,0,1,.84-1.764,3.181,3.181,0,0,1,2.1-.7,3.549,3.549,0,0,1,1.9.516,2.857,2.857,0,0,1,.744.648,4.239,4.239,0,0,1,.588,1.008l-1.764.54a2.457,2.457,0,0,0-.546-.834,1.286,1.286,0,0,0-.93-.318,1.876,1.876,0,0,0-.39.042,1.286,1.286,0,0,0-.36.132.7.7,0,0,0-.366.642.612.612,0,0,0,.114.348,1.139,1.139,0,0,0,.39.324,8.1,8.1,0,0,0,1.3.576,6.23,6.23,0,0,1,1.824.972A2.164,2.164,0,0,1,35.5,53.9a2.526,2.526,0,0,1-.84,2.028A3.586,3.586,0,0,1,32.312,56.627Z"/><path d="M38.312,56.507l-2.364-8.928h1.907l1.44,6.012,1.513-6.012h1.92l-2.376,8.928Z"/><path d="M53.84,17.73c-.02-.02-.04-.05-.06-.07a.5.5,0,0,0-.07-.08L39.42,3.29c-.02-.02-.05-.04-.07-.06s-.06-.05-.08-.07L39.12,3H14a4,4,0,0,0-4,4V57a4,4,0,0,0,4,4H50a4,4,0,0,0,4-4V17.88ZM52,57a2.006,2.006,0,0,1-2,2H14a2.006,2.006,0,0,1-2-2V41.46H25.73l2.7,3.09a.981.981,0,0,0,.75.34H52ZM16,28.35v-2H48v2Zm32,2.4v2H30.29v-2Zm0-6.79H16v-2H48Zm-32-4.4v-2H33.71v2Zm25.71-2.27a2.006,2.006,0,0,1-2-2V6.41L50.59,17.29Z"/><text x="0" y="79" fill="#000000" font-size="5px" font-weight="bold" font-family="'Helvetica Neue', Helvetica, Arial-Unicode, Arial, Sans-serif"></text><text x="0" y="84" fill="#000000" font-size="5px" font-weight="bold" font-family="'Helvetica Neue', Helvetica, Arial-Unicode, Arial, Sans-serif"></text></svg>