<svg xmlns="http://www.w3.org/2000/svg" xmlns:xlink="http://www.w3.org/1999/xlink" xml:space="preserve" version="1.1" style="shape-rendering:geometricPrecision;text-rendering:geometricPrecision;image-rendering:optimizeQuality;" viewBox="0 0 10000 12500" x="0px" y="0px" fill-rule="evenodd" clip-rule="evenodd"><defs><style type="text/css">
   
    .fil0 {fill:black}
   
  </style></defs><g><path class="fil0" d="M5000 661c2485,0 4500,2015 4500,4500 0,224 -17,445 -49,661l-1 0c0,73 -59,132 -132,132 -73,0 -132,-59 -132,-132l-2 0 2 -15c1,-3 1,-7 2,-10 31,-208 47,-420 47,-636 0,-1170 -474,-2229 -1240,-2995 -766,-766 -1825,-1240 -2995,-1240 -1170,0 -2229,474 -2995,1240 -766,766 -1241,1825 -1241,2995 0,216 17,428 48,635 1,4 1,8 2,12l2 14 -2 0c0,73 -59,132 -132,132 -73,0 -132,-59 -132,-132l-1 0c-32,-216 -49,-437 -49,-661 0,-2485 2015,-4500 4500,-4500zm750 7152l774 0 0 132 -774 0 0 -132zm1711 -5124c37,0 66,30 66,67l0 581 366 300 25 20 0 31 0 2398 132 0 0 -1058 864 0 0 1984c-752,0 -1505,0 -2258,0l0 -474c46,-75 90,-150 132,-226l0 568c421,0 841,0 1262,0l0 -661 -661 0 0 -529 -302 0c18,-44 35,-88 51,-133l383 0 0 529 264 0 0 -2367 -324 -266 -165 136c-13,-46 -27,-91 -42,-136l141 -116 0 -581c0,-37 30,-67 66,-67zm-5642 2939l0 -2006 241 0 0 -320 274 0 0 -546 132 0 0 546 274 0 0 173c-29,89 -56,188 -74,279l-714 0 0 1874c224,32 396,225 396,458l133 0 0 -1587 148 0c4,44 8,88 13,132l-29 0c0,750 0,1500 0,2249l600 0 0 -570c42,76 87,151 132,225l0 477c-729,0 -1458,0 -2187,0l0 -926 264 0c0,-233 173,-426 397,-458zm3182 -3649c1242,0 2249,1007 2249,2250 0,1616 -1152,3015 -2249,4113 -1088,-1088 -2250,-2497 -2250,-4113 0,-1243 1007,-2250 2250,-2250zm1403 846c-359,-359 -855,-581 -1403,-581 -548,0 -1045,222 -1404,581 -359,359 -581,855 -581,1404 0,754 274,1465 676,2116 364,589 836,1133 1309,1620 477,-490 949,-1036 1312,-1624 401,-650 673,-1358 673,-2112 0,-549 -222,-1045 -582,-1404zm1525 5583l-545 0 0 545 545 -545zm-677 666l0 -732c0,-37 29,-66 66,-66l611 0 -330 -331 -811 0 0 -132 678 0 -369 -369c-52,-52 -52,-136 0,-187 51,-52 135,-52 187,0l992 992c51,51 51,135 0,186l-865 865c-26,26 -60,39 -93,39l0 0 -6362 0c-73,0 -133,-59 -133,-132 0,-41 18,-77 47,-101l1845 -1849c52,-51 135,-52 187,0 51,51 52,135 0,186l-369 370 680 0 0 132 -812 0 -1127 1129 5978 0zm-4771 -2855l0 661 -1191 0 0 -661c397,0 794,0 1191,0zm-265 -133c0,-91 -37,-174 -97,-233 -59,-60 -142,-97 -234,-97 -91,0 -174,37 -234,96 -59,60 -96,143 -96,234l661 0zm5437 397l-132 0 0 133 132 0 0 -133zm265 0l-133 0 0 133 133 0 0 -133zm-763 -132l-133 0 0 132 133 0 0 -132zm0 -265l-133 0 0 133 133 0 0 -133zm0 -264l-133 0 0 132 133 0 0 -132zm1261 0l132 0 0 132 -132 0 0 -132zm0 264l132 0 0 133 -132 0 0 -133zm0 -793l132 0 0 132 -132 0 0 -132zm0 1058l132 0 0 132 -132 0 0 -132zm0 -794l132 0 0 133 -132 0 0 -133zm-234 1323l600 0 0 -1720 -600 0c0,574 0,1147 0,1720zm-6495 -397l132 0 0 133 -132 0 0 -133zm265 0l132 0 0 133 -132 0 0 -133zm1526 1330l773 0 0 132 -773 0 0 -132zm-631 -1991l132 0 0 132 -132 0 0 -132zm0 264l132 0 0 133 -132 0 0 -133zm0 265l132 0 0 132 -132 0 0 -132zm-655 -2729l416 0 0 -188 -416 0 0 188zm2808 -256c496,0 897,401 897,897 0,496 -401,898 -897,898 -496,0 -898,-402 -898,-898 0,-496 402,-897 898,-897zm0 264c-350,0 -633,283 -633,633 0,350 283,633 633,633 350,0 633,-283 633,-633 0,-350 -283,-633 -633,-633z"/></g><text x="0" y="10015" fill="#000000" font-size="5px" font-weight="bold" font-family="'Helvetica Neue', Helvetica, Arial-Unicode, Arial, Sans-serif">Created by Hadi</text><text x="0" y="10020" fill="#000000" font-size="5px" font-weight="bold" font-family="'Helvetica Neue', Helvetica, Arial-Unicode, Arial, Sans-serif">from the Noun Project</text></svg>