<svg xmlns="http://www.w3.org/2000/svg" data-name="Layer 1" viewBox="0 0 100 125" x="0px" y="0px"><title>84 all</title><path d="M97,16A12,12,0,0,0,85,4H15A12,12,0,0,0,3,16V84A12,12,0,0,0,15,96H85A12,12,0,0,0,97,84ZM15,8H85a8,8,0,0,1,8,8V26.5H7V16A8,8,0,0,1,15,8ZM85,92H15a8,8,0,0,1-8-8V30.5H93V84A8,8,0,0,1,85,92Z"/><circle cx="16" cy="17" r="4"/><circle cx="26" cy="17" r="4"/><circle cx="36" cy="17" r="4"/><rect x="13" y="39.5" width="6" height="4"/><rect x="23.83" y="39.5" width="14" height="4"/><rect x="41.67" y="39.5" width="28" height="4"/><rect x="73" y="39.5" width="15" height="4"/><rect x="13" y="52.67" width="6" height="4"/><rect x="23.83" y="52.67" width="4" height="4"/><rect x="31.33" y="52.67" width="24" height="4"/><rect x="59" y="52.67" width="29" height="4"/><rect x="13" y="65.83" width="6" height="4"/><rect x="23.83" y="65.83" width="14" height="4"/><rect x="41.67" y="65.83" width="8" height="4"/><rect x="53" y="65.83" width="35" height="4"/><rect x="13" y="79" width="6" height="4"/><rect x="23.83" y="79" width="4" height="4"/><rect x="31.33" y="79" width="4" height="4"/><rect x="48" y="79" width="12" height="4"/><rect x="64" y="79" width="4" height="4"/><rect x="70" y="79" width="18" height="4"/><rect x="39" y="79" width="5" height="4"/><text x="0" y="115" fill="#000000" font-size="5px" font-weight="bold" font-family="'Helvetica Neue', Helvetica, Arial-Unicode, Arial, Sans-serif"></text><text x="0" y="120" fill="#000000" font-size="5px" font-weight="bold" font-family="'Helvetica Neue', Helvetica, Arial-Unicode, Arial, Sans-serif"></text></svg>